<svg width="21" height="37" viewBox="0 0 21 37" fill="none" xmlns="http://www.w3.org/2000/svg">
<path fill-rule="evenodd" clip-rule="evenodd" d="M17.6612 26.2814C15.9669 28.0295 13.8423 29.1052 11.5833 29.401V35.1024C11.5833 35.7478 11.0724 36.2588 10.4269 36.2588C9.78148 36.2588 9.27051 35.7478 9.27051 35.1024V29.401C7.01148 29.1052 4.8869 28.0295 3.19263 26.2814C1.3101 24.3451 0.234375 21.7633 0.234375 19.2623C0.234375 8.85459 9.2705 0.652161 9.647 0.302549C10.1042 -0.10085 10.7496 -0.10085 11.2068 0.302549C11.5833 0.652161 20.6195 8.85459 20.6195 19.2623C20.6195 21.7633 19.5437 24.3451 17.6612 26.2814ZM3.21953 14.6097L9.27051 20.6607V15.8468L4.53729 11.1136C3.99943 12.2162 3.54225 13.3727 3.21953 14.6097ZM17.6343 14.6097C17.3116 13.3727 16.8544 12.2162 16.3165 11.1136L11.5833 15.8468V20.6607L17.6343 14.6097ZM11.5564 4.04071V12.5927L15.1063 9.04285C15.1243 9.02492 15.1422 9.00698 15.1601 8.98906C13.9768 6.94517 12.6322 5.2509 11.5564 4.04071ZM5.63992 8.98906C5.67578 9.00698 5.70267 9.02492 5.7206 9.04285L9.27051 12.5927V4.04071C8.19478 5.2509 6.85012 6.94517 5.63992 8.98906ZM9.27051 27.0882V23.9417L2.62788 17.326C2.55616 17.9714 2.5203 18.6168 2.5203 19.2623C2.5203 22.6777 5.3172 26.4428 9.27051 27.0882ZM18.3066 19.2623C18.3066 18.6168 18.2618 17.9714 18.1722 17.326L11.5564 23.9417V27.0882C15.4828 26.4428 18.3066 22.6777 18.3066 19.2623Z" fill="#F29D36"/>
</svg>
