<svg width="187" height="110" viewBox="0 0 187 110" fill="none" xmlns="http://www.w3.org/2000/svg">
<path fill-rule="evenodd" clip-rule="evenodd" d="M13.5273 49.5978C20.3044 49.5978 27.0546 54.6269 27.0546 63.663C27.0546 72.6722 20.3044 77.7281 13.5273 77.7281C6.7771 77.7281 0 72.6722 0 63.663C0 54.6269 6.7771 49.5978 13.5273 49.5978ZM13.5273 74.3127C18.5563 74.3127 23.2626 70.6821 23.2626 63.663C23.2626 56.617 18.5563 53.0402 13.5273 53.0402C8.52516 53.0402 3.79195 56.617 3.79195 63.663C3.79195 70.6821 8.52516 74.3127 13.5273 74.3127Z" fill="black"/>
<path d="M36.3867 67.9659V50.1626H40.0711V67.8314C40.0711 71.9461 42.3032 74.2589 46.0683 74.2589C49.8602 74.2589 52.0386 71.9461 52.0386 67.8314V50.1626H55.7498V67.9659C55.7498 74.3127 51.5545 77.7282 46.0683 77.7282C40.5821 77.7282 36.3867 74.3127 36.3867 67.9659Z" fill="black"/>
<path d="M76.4837 53.6318V77.1634H72.7456V53.6318H63.7363V50.1626H85.493V53.6318H76.4837Z" fill="black"/>
<path fill-rule="evenodd" clip-rule="evenodd" d="M104.723 49.5978C111.473 49.5978 118.25 54.6269 118.25 63.663C118.25 72.6722 111.473 77.7281 104.723 77.7281C97.9455 77.7281 91.1953 72.6722 91.1953 63.663C91.1953 54.6269 97.9455 49.5978 104.723 49.5978ZM104.723 74.3127C109.725 74.3127 114.458 70.6821 114.458 63.663C114.458 56.617 109.725 53.0402 104.723 53.0402C99.6936 53.0402 94.9873 56.617 94.9873 63.663C94.9873 70.6821 99.6936 74.3127 104.723 74.3127Z" fill="black"/>
<path d="M146.218 77.1634L131.669 55.1647V77.1634H127.931V50.1626H132.906L146.379 70.8704V50.1626H150.091V77.1634H146.218Z" fill="black"/>
<path fill-rule="evenodd" clip-rule="evenodd" d="M173.327 49.5978C180.077 49.5978 186.854 54.6269 186.854 63.663C186.854 72.6722 180.077 77.7281 173.327 77.7281C166.55 77.7281 159.8 72.6722 159.8 63.663C159.8 54.6269 166.55 49.5978 173.327 49.5978ZM173.327 74.3127C178.329 74.3127 183.062 70.6821 183.062 63.663C183.062 56.617 178.329 53.0402 173.327 53.0402C168.298 53.0402 163.592 56.617 163.592 63.663C163.592 70.6821 168.298 74.3127 173.327 74.3127Z" fill="black"/>
<path fill-rule="evenodd" clip-rule="evenodd" d="M49.5916 72.0268C50.488 72.0447 50.9362 72.6364 50.9362 73.8018V74.0707C50.9362 75.505 50.5687 76.7062 49.8336 77.6744C49.8336 78.1764 48.8206 79.4762 46.7947 81.5739C46.0596 82.2373 45.0914 82.9903 43.8902 83.8329C43.2986 84.6039 42.949 85.4286 42.8414 86.3071C42.8414 86.7553 44.9928 87.1318 49.2958 87.4366H50.4522C51.259 87.4366 52.4064 87.1049 53.8945 86.4416C53.9841 86.3699 54.1365 86.334 54.3517 86.334C55.1764 86.334 55.5888 86.6298 55.5888 87.2215C55.5888 87.849 54.1276 88.4765 51.2052 89.104C50.8824 89.1398 50.5328 89.1578 50.1563 89.1578C49.0806 89.1578 47.3684 89.0412 45.0197 88.8082C45.0197 88.8082 45.0018 88.8082 44.9659 88.8082C45.0735 89.1309 45.459 89.866 46.1223 91.0134C46.6423 92.5194 47.0995 94.4916 47.4939 96.9299V97.3333L47.5746 97.6829V97.656C47.6463 98.911 47.6822 99.933 47.6822 100.722V101.071C47.6822 102.38 47.2608 104.388 46.4182 107.096C45.7369 108.512 44.7329 109.462 43.4061 109.946C43.2986 109.946 43.1372 109.964 42.9221 110C41.0754 110 39.7218 108.207 38.8612 104.621C38.5922 103.062 38.4578 102.067 38.4578 101.636V101.125C38.4578 100.695 38.5295 100.166 38.6729 99.5386C38.6371 99.3055 38.6191 99.0993 38.6191 98.92V98.7587C38.6191 97.0196 39.0763 93.7476 39.9907 88.9426C40.2955 88.0821 40.5734 86.9436 40.8244 85.5272C39.9997 85.8141 39.408 85.9575 39.0494 85.9575H38.9419C38.7626 85.9575 38.5385 85.7782 38.2695 85.4196C38.2695 84.8997 38.8343 84.4425 39.9638 84.0481C41.0933 83.5998 41.7836 83.0709 42.0346 82.4614C42.949 79.9872 44.2757 77.4234 46.0148 74.7699C47.1264 72.9591 48.1752 72.0447 49.1613 72.0268H49.5916ZM44.9928 88.8082C44.9749 88.7544 44.9659 88.7096 44.9659 88.6737V88.8082C44.9659 88.8082 44.9749 88.8082 44.9928 88.8082ZM47.5746 97.6829L47.7359 98.0057H47.6553L47.5746 97.6829ZM40.7975 85.5272C40.8154 85.5272 40.8333 85.5272 40.8513 85.5272C40.8333 85.5272 40.8244 85.4824 40.8244 85.3927V85.4196C40.8244 85.4555 40.8154 85.4913 40.7975 85.5272ZM41.9808 88.4048C41.7836 88.4048 41.3354 91.4706 40.6361 97.6023C40.6361 98.3911 40.6003 99.0007 40.5286 99.431C40.5286 99.431 40.5375 99.431 40.5555 99.431L40.4479 100.507V100.776C40.4479 100.973 40.4837 101.385 40.5555 102.013H40.4479C40.4479 102.622 40.8065 104.075 41.5236 106.369C42.1511 107.571 42.5904 108.171 42.8414 108.171H43.0565C43.4868 108.171 44.0785 107.49 44.8315 106.127C45.1004 105.518 45.3424 104.415 45.5576 102.82C45.5576 102.479 45.5755 102.273 45.6114 102.201C45.6472 101.143 45.6652 100.462 45.6652 100.157C45.6652 99.8165 45.6472 99.1083 45.6114 98.0325C45.5755 97.9608 45.5576 97.7547 45.5576 97.414C45.3604 95.5135 45.0556 93.9627 44.6432 92.7615C43.6392 90.2694 42.7428 88.8082 41.9539 88.3779C41.9539 88.3958 41.9629 88.4048 41.9808 88.4048ZM40.5286 99.431C40.4748 99.4669 40.4479 99.5834 40.4479 99.7806C40.4837 99.691 40.5106 99.5744 40.5286 99.431ZM45.5576 102.82C45.5934 102.784 45.6114 102.676 45.6114 102.497C45.5934 102.604 45.5755 102.712 45.5576 102.82ZM48.9999 74.0169C48.9999 73.999 49.0089 73.981 49.0268 73.9631C49.0089 73.9452 48.9999 73.9631 48.9999 74.0169ZM47.2788 76.4104C45.719 78.9563 44.8315 80.525 44.6163 81.1167C45.5307 80.4175 46.3913 79.53 47.1981 78.4543C48.3814 76.8407 48.973 75.3616 48.973 74.0169C48.973 74.0169 48.982 74.0169 48.9999 74.0169C48.3186 74.6444 47.7449 75.4422 47.2788 76.4104ZM44.6163 81.1167C44.5446 81.1884 44.4729 81.2512 44.4012 81.305C44.4908 81.305 44.5536 81.3139 44.5894 81.3319C44.5894 81.296 44.5984 81.2243 44.6163 81.1167Z" fill="#F29D36"/>
<path fill-rule="evenodd" clip-rule="evenodd" d="M60.3213 82.2462L61.1012 82.2731C62.2486 82.2731 63.0465 82.7751 63.4947 83.7791C63.6022 84.0301 63.8532 85.1148 64.2477 87.0332C64.9828 88.7185 66.2557 89.5612 68.0665 89.5612C69.8235 89.5612 71.7509 88.5482 73.8486 86.5222C74.2609 86.4326 74.5657 86.3878 74.7629 86.3878C75.2111 86.6029 75.4353 86.8808 75.4353 87.2215C75.4353 87.7055 74.9691 88.2793 74.0368 88.9426C72.7818 90.0363 71.1772 90.8341 69.2229 91.3361C68.8106 91.372 68.4879 91.3899 68.2548 91.3899H68.0127C65.431 91.3899 63.5664 90.2156 62.4189 87.8669L62.3114 87.8131C62.3293 87.831 62.0155 88.4137 61.3701 89.5612C59.9179 91.5154 58.3401 92.4925 56.6369 92.4925H56.5562C55.2474 92.4925 54.2524 91.7575 53.5711 90.2873C53.4456 89.8749 53.3828 89.5074 53.3828 89.1847C53.4366 87.4994 54.2613 85.8051 55.857 84.1019C57.1479 82.8827 58.636 82.2641 60.3213 82.2462ZM55.2385 88.8888C55.2385 89.857 55.6598 90.4666 56.5024 90.7176H56.7983C58.1608 90.7176 59.5503 89.2474 60.9667 86.3071C61.3791 85.321 61.5852 84.6576 61.5852 84.317V83.9674C61.5852 84.0032 61.2894 84.0122 60.6978 83.9943C58.6718 83.9405 57.0851 84.9445 55.9377 87.0063C55.4715 87.6697 55.2385 88.2972 55.2385 88.8888Z" fill="#F29D36"/>
<path fill-rule="evenodd" clip-rule="evenodd" d="M74.5481 80.9285C76.5561 81.1795 77.5602 82.1297 77.5602 83.7791C77.5602 84.8907 76.9506 86.2623 75.7314 87.8938C76.2514 88.4675 76.5472 88.8261 76.6189 88.9695V88.7544L77.1568 89.0502C77.2105 89.0502 78.4566 88.5303 80.8949 87.4904C82.132 87.0601 83.7187 86.6657 85.655 86.3071C86.1929 86.4505 86.4618 86.8181 86.4618 87.4097C86.1032 88.0552 85.5205 88.3779 84.7137 88.3779C81.9348 89.0233 79.8192 89.8391 78.367 90.8252L79.2275 93.5414L79.3351 94.1061L79.2813 94.2137L79.3082 94.2406C79.2544 94.7068 79.2544 94.9129 79.3082 94.8592C78.7524 96.9927 78.0263 98.3373 77.1299 98.8931C76.5741 99.5386 75.4266 100.032 73.6875 100.372L73.1228 100.641V100.587C73.3738 100.462 73.329 100.426 72.9883 100.48C72.5759 100.426 72.3249 100.408 72.2353 100.426C70.8727 99.8344 70.1914 98.9738 70.1914 97.8443C70.1914 95.7825 71.7602 93.398 74.8977 90.6907C75.077 90.5293 75.1667 90.4038 75.1667 90.3142V90.2604C75.1667 90.1528 74.6109 89.5433 73.4993 88.4317C72.2801 86.9794 71.5988 85.7872 71.4554 84.8549C71.4554 84.7832 71.4554 84.7294 71.4554 84.6935C71.4554 84.6935 71.4554 84.6845 71.4554 84.6666C71.4554 83.8598 71.7333 83.0261 72.2891 82.1655C72.9525 81.3408 73.7055 80.9285 74.5481 80.9285ZM75.7314 87.8938C75.7135 87.8759 75.6866 87.849 75.6507 87.8131V88.0014C75.6866 87.9655 75.7135 87.9297 75.7314 87.8938ZM76.6189 88.9695V89.0502C76.6368 89.0502 76.6368 89.0233 76.6189 88.9695ZM79.3351 94.1061V94.0792L79.4427 94.3482H79.362L79.3351 94.1061ZM79.3351 94.8322C79.3351 94.8143 79.3441 94.7874 79.362 94.7516H79.3889C79.371 94.7874 79.353 94.8143 79.3351 94.8322ZM72.2353 100.399C72.2353 100.399 72.2443 100.399 72.2622 100.399V100.48C72.2084 100.444 72.1994 100.417 72.2353 100.399ZM71.4823 84.6666C71.5182 84.7383 71.5361 84.6487 71.5361 84.3977C71.5002 84.3977 71.4823 84.4873 71.4823 84.6666ZM72.2622 97.656V98.0863C72.3339 98.5346 72.558 98.7587 72.9345 98.7587C74.0461 98.7587 75.2294 98.1222 76.4844 96.8492C76.9685 96.1679 77.2105 95.2357 77.2105 94.0524C76.9954 92.6898 76.7354 92.0085 76.4306 92.0085C75.4983 92.4746 74.3688 93.6041 73.0421 95.397C72.5222 96.0783 72.2622 96.8313 72.2622 97.656ZM73.4724 84.2632V84.3977C73.4724 84.9714 73.7861 85.6527 74.4136 86.4416C75.2204 85.2583 75.6238 84.326 75.6238 83.6447C75.6238 83.2323 75.2742 82.9634 74.575 82.8379C74.0909 82.8379 73.7234 83.313 73.4724 84.2632ZM74.4136 86.4416C74.3778 86.4774 74.3419 86.5223 74.3061 86.576H74.5212L74.5481 86.6029C74.4943 86.5491 74.4495 86.4954 74.4136 86.4416Z" fill="#F29D36"/>
<path fill-rule="evenodd" clip-rule="evenodd" d="M97.2199 66.1641H97.3275C98.1881 66.2716 98.6183 66.684 98.6183 67.4011C98.6183 69.3195 97.1482 72.7798 94.2079 77.7819C93.2397 79.3776 91.6709 81.5201 89.5015 84.2094C87.368 86.8091 86.3012 88.2703 86.3012 88.593C86.104 89.113 85.9427 90.1349 85.8172 91.6588C86.1578 91.2465 86.5971 90.5114 87.1349 89.4536C88.121 88.2524 89.125 87.6518 90.147 87.6518C91.4737 87.6518 92.5853 88.853 93.4817 91.2554C94.0913 92.636 94.7099 93.4517 95.3374 93.7027C95.5346 93.8103 95.7497 93.8641 95.9828 93.8641H96.3324C97.2468 93.8641 98.2777 93.2904 99.4251 92.1429C100.25 90.9955 100.877 89.8211 101.308 88.6199C101.666 87.1318 102.15 86.3878 102.76 86.3878C103.387 86.4416 103.701 86.7463 103.701 87.3021C103.307 89.1847 102.356 91.1927 100.85 93.3262C99.5237 94.8681 97.9012 95.639 95.9828 95.639C93.9389 95.6211 92.406 94.1958 91.3841 91.363C90.7386 90.1439 90.3173 89.5343 90.1201 89.5343C90.0484 89.4984 90.0036 89.4805 89.9856 89.4805H89.9318C89.0175 89.4805 87.9507 91.1299 86.7315 94.4288L86.1937 97.3602C85.9606 97.5753 85.7006 97.7277 85.4138 97.8174C84.6428 97.8174 84.2125 97.1182 84.1229 95.7197C84.0153 94.9846 83.9346 94.2764 83.8809 93.5951C83.8809 90.0094 84.3739 87.2484 85.36 85.312C88.5872 77.6564 90.9896 72.7888 92.5674 70.709C93.7865 68.9341 94.7457 67.7059 95.4449 67.0246C96.1083 66.4509 96.7 66.1641 97.2199 66.1641ZM85.8172 91.6588C85.7634 91.7305 85.7186 91.7843 85.6827 91.8202H85.7096C85.8172 91.8202 85.853 91.7664 85.8172 91.6588ZM88.5603 82.811C88.5961 82.7034 88.632 82.5958 88.6678 82.4883C88.4886 82.7034 88.3631 82.811 88.2914 82.811C88.4348 82.811 88.5244 82.8827 88.5603 83.0261V82.811ZM90.6042 79.7451C92.2715 77.6295 93.7865 75.1195 95.1491 72.215C95.7946 70.8524 96.2607 69.5974 96.5476 68.45C96.5476 68.45 96.5386 68.45 96.5207 68.45C96.4131 68.45 95.7587 69.3016 94.5575 71.0048C92.406 74.1782 91.3303 75.9801 91.3303 76.4104C90.0573 79.0818 89.1699 81.1077 88.6678 82.4883C89.0444 82.04 89.6898 81.1257 90.6042 79.7451ZM96.5476 68.45C96.5655 68.4321 96.5655 68.4141 96.5476 68.3962V68.45Z" fill="#F29D36"/>
<path d="M102.84 86.3071H102.921C103.53 86.4326 103.835 86.7463 103.835 87.2483V87.6517C103.351 89.1398 102.885 90.0811 102.437 90.4755C101.827 91.5692 101.522 92.5553 101.522 93.4338C101.522 93.8461 101.845 94.0523 102.49 94.0523C104.265 94.0523 106.748 92.618 109.94 89.7494C110.047 89.4984 110.343 89.2384 110.827 88.9695C111.562 88.2882 112.36 87.4545 113.221 86.4684H113.812C114.368 86.5581 114.646 86.8539 114.646 87.3559V87.4635C114.646 87.7862 114.18 88.4227 113.248 89.3729C112.764 89.9825 112.127 90.5652 111.338 91.121C107.788 94.3661 104.803 95.9886 102.383 95.9886C100.518 95.9886 99.5859 95.1191 99.5859 93.38C99.5859 92.627 99.8459 91.5154 100.366 90.0452C101.549 87.6248 102.159 86.4146 102.195 86.4146C102.195 86.3609 102.41 86.325 102.84 86.3071ZM105.529 81.7352C106.013 81.7352 106.309 82.0759 106.417 82.7572C106.417 83.5281 105.969 84.0929 105.072 84.4514C104.929 84.5411 104.615 84.6128 104.131 84.6666C103.288 84.4873 102.867 84.0749 102.867 83.4295C102.867 82.6586 103.548 82.1207 104.911 81.8159C105.09 81.7621 105.296 81.7352 105.529 81.7352Z" fill="#F29D36"/>
<path fill-rule="evenodd" clip-rule="evenodd" d="M115.803 85.9575C117.363 85.9575 118.384 86.5312 118.869 87.6786C119.03 88.1269 119.111 88.5661 119.111 88.9964C119.111 89.5343 119.039 90.1259 118.895 90.7714C118.895 90.8969 118.985 90.9596 119.164 90.9596H120.025C123.055 90.9596 126.381 89.5701 130.002 86.7912C130.504 86.4684 130.917 86.3071 131.239 86.3071H131.455C131.831 86.5043 132.019 86.7911 132.019 87.1677C131.966 87.6338 131.123 88.4048 129.491 89.4805C126.175 91.6678 122.643 92.7615 118.895 92.7615C118.644 92.7256 118.447 92.7077 118.304 92.7077C118.107 92.7077 117.775 93.0662 117.309 93.7834C116.072 95.2715 114.709 96.0155 113.221 96.0155H112.683C111.374 96.0155 110.469 95.2715 109.967 93.7834C109.931 93.4965 109.913 93.1917 109.913 92.869V92.5732C109.913 90.1528 111.168 88.1 113.678 86.4146C114.521 86.1099 115.229 85.9575 115.803 85.9575ZM111.661 92.627C111.661 93.4517 111.984 93.9985 112.629 94.2675C112.737 94.3392 112.889 94.3751 113.086 94.3751C114.055 94.3751 115.023 93.6937 115.991 92.3312L116.018 92.1429C116.018 92.125 115.588 91.8919 114.727 91.4437C113.92 90.9417 113.355 90.1887 113.033 89.1846C112.764 89.3281 112.342 90.1349 111.769 91.605C111.769 91.6409 111.733 91.9816 111.661 92.627ZM113.033 89.1846C113.051 89.1846 113.06 89.1846 113.06 89.1846H113.113L113.033 89.1309C113.033 89.1488 113.033 89.1667 113.033 89.1846ZM115.023 88.9426C115.023 89.4088 115.417 89.857 116.206 90.2873C116.511 90.4666 116.726 90.5472 116.852 90.5293H116.905C116.941 90.5472 117.031 90.0632 117.174 89.0771C117.174 88.2165 116.843 87.7862 116.179 87.7862C115.408 87.8759 115.023 88.2613 115.023 88.9426Z" fill="#F29D36"/>
<path d="M153.856 86.2533H154.206C154.601 86.5043 154.798 86.8001 154.798 87.1408V87.2483C154.332 89.0412 153.103 91.0761 151.113 93.3531C149.572 94.877 148.334 95.7197 147.402 95.8811C146.022 96.3651 144.919 96.6072 144.094 96.6072C141.674 96.6072 140.033 95.4418 139.173 93.1111C138.33 90.4935 137.828 89.0592 137.667 88.8082C137.487 88.6109 137.29 88.5034 137.075 88.4854H136.806C135.946 88.4854 135.049 89.095 134.117 90.3142C133.561 90.9596 132.1 92.9676 129.733 96.3383C129.375 96.6968 129.07 96.8761 128.819 96.8761H128.711C128.191 96.8761 127.869 96.5444 127.743 95.8811C128.586 92.2594 129.42 89.2922 130.244 86.9794C130.567 86.5312 130.908 86.3071 131.266 86.3071C131.661 86.4684 131.912 86.6836 132.019 86.9525V87.4366C131.696 88.351 131.329 89.7136 130.917 91.5244V91.9278C130.899 91.7843 130.818 91.7126 130.675 91.7126H130.594C130.827 91.5154 131.589 90.5741 132.88 88.8888C134.081 87.4366 135.354 86.7105 136.699 86.7105H136.914C138.438 86.7105 139.46 87.6159 139.98 89.4267C140.894 92.4029 141.566 93.9448 141.997 94.0523C142.552 94.5723 143.287 94.8322 144.202 94.8322H144.256C146.084 94.8322 147.886 93.9268 149.661 92.116C151.364 90.0901 152.342 88.5034 152.593 87.3559C152.987 86.6208 153.408 86.2533 153.856 86.2533Z" fill="#F29D36"/>
<path fill-rule="evenodd" clip-rule="evenodd" d="M100.661 26.2814C98.9669 28.0295 96.8423 29.1052 94.5833 29.401V35.1024C94.5833 35.7478 94.0724 36.2588 93.4269 36.2588C92.7815 36.2588 92.2705 35.7478 92.2705 35.1024V29.401C90.0115 29.1052 87.8869 28.0295 86.1926 26.2814C84.3101 24.3451 83.2344 21.7633 83.2344 19.2623C83.2344 8.85459 92.2705 0.652161 92.647 0.302549C93.1042 -0.10085 93.7496 -0.10085 94.2068 0.302549C94.5833 0.652161 103.619 8.85459 103.619 19.2623C103.619 21.7633 102.544 24.3451 100.661 26.2814ZM86.2195 14.6097L92.2705 20.6607V15.8468L87.5373 11.1136C86.9994 12.2162 86.5423 13.3727 86.2195 14.6097ZM100.634 14.6097C100.312 13.3727 99.8544 12.2162 99.3165 11.1136L94.5833 15.8468V20.6607L100.634 14.6097ZM94.5564 4.04071V12.5927L98.1063 9.04285C98.1243 9.02492 98.1422 9.00698 98.1601 8.98906C96.9768 6.94517 95.6322 5.2509 94.5564 4.04071ZM88.6399 8.98906C88.6758 9.00698 88.7027 9.02492 88.7206 9.04285L92.2705 12.5927V4.04071C91.1948 5.2509 89.8501 6.94517 88.6399 8.98906ZM92.2705 27.0882V23.9417L85.6279 17.326C85.5562 17.9714 85.5203 18.6168 85.5203 19.2623C85.5203 22.6777 88.3172 26.4428 92.2705 27.0882ZM101.307 19.2623C101.307 18.6168 101.262 17.9714 101.172 17.326L94.5564 23.9417V27.0882C98.4828 26.4428 101.307 22.6777 101.307 19.2623Z" fill="#F29D36"/>
</svg>
